PathFileType	4	(X/Y/Z)	8_coords_data.trc
DataRate	CameraRate	NumFrames	NumMarkers	Units	OrigDataRate	OrigDataStartFrame	OrigNumFrames
30.0	30.0	8	21	m	30.0	19	56
Frame#	Time	THUMB_TIP	THUMB_IP	THUMB_MCP	THUMB_CMC	INDEX_TIP	INDEX_DIP	INDEX_PIP	INDEX_MCP	MIDDLE_TIP	MIDDLE_DIP	MIDDLE_PIP	MIDDLE_MCP	RING_TIP	RING_DIP	RING_PIP	RING_MCP	PINKY_TIP	PINKY_DIP	PINKY_PIP	PINKY_MCP	WRIST
X1	Y1	Z1	X2	Y2	Z2	X3	Y3	Z3	X4	Y4	Z4	X5	Y5	Z5	X6	Y6	Z6	X7	Y7	Z7	X8	Y8	Z8	X9	Y9	Z9	X10	Y10	Z10	X11	Y11	Z11	X12	Y12	Z12	X13	Y13	Z13	X14	Y14	Z14	X15	Y15	Z15	X16	Y16	Z16	X17	Y17	Z17	X18	Y18	Z18	X19	Y19	Z19	X20	Y20	Z20	X21	Y21	Z21
17	0.5999999999999973	0.5479519055982176	-0.024407364337291182	-0.12417545875681141	0.5254957276748677	-0.02000020935932245	-0.12210252410395278	0.4969514733542698	-0.011649265924955965	-0.11292062402624337	0.4711185969808914	-0.025158349972987826	-0.07915589173852988	0.565055773592491	0.060877597654221516	-0.15755846092987147	0.5527908058577581	0.05114900440220471	-0.14845214225530418	0.5368961971962669	0.041874223159650614	-0.13132468822965238	0.511294751864166	0.02430743518495604	-0.10217661709004561	0.5102309371353989	-0.012965282999868655	-0.10924270365751071	0.5249401694394847	-0.011136242681377695	-0.11964910056219269	0.5462996536630479	0.008678086323439915	-0.11889124187338634	0.5250850136194186	0.01998249344517289	-0.08123095312721029	0.5291377619299776	-0.023399511582707477	-0.10812391438915381	0.5457665591810608	-0.017754493253881454	-0.11220029391633113	0.562858549734484	-0.0020524371334186275	-0.10317315308927366	0.5349204619091503	0.0022803852706853034	-0.07426968041420479	0.6026249813060107	0.007994388458415713	-0.05814878372065768	0.5868700151723781	0.0015177784539399664	-0.05983240035695436	0.5669170331687557	-0.004838370867100261	-0.06134563991887643	0.5341463569170214	-0.018158679695727487	-0.06838379320748933	0.4622830810018608	-0.023011742144276925	-0.051989820119430985
18	0.6333333333333304	0.5479393490695836	-0.024522791750229866	-0.12418777584317092	0.5254857527022322	-0.020101388410830534	-0.12211721971439499	0.49695292198205765	-0.011718180587473426	-0.11292921679296153	0.4711064644170754	-0.025184416897732542	-0.07915776270851582	0.5650489152490117	0.06078198456219441	-0.1576521966325466	0.5527859969711132	0.05105886023198203	-0.14853728091330848	0.5368919188223539	0.041803728906903315	-0.13139870871616566	0.5113070856239282	0.0242218350720379	-0.10224515981747645	0.5101972826671873	-0.013071210228743468	-0.10930334127277064	0.5249095450877438	-0.01123389162020072	-0.11970399484835825	0.546284791352877	0.008562906565714012	-0.11893251659780502	0.5250938608486466	0.019936380384696473	-0.08127967502304723	0.5291172149872648	-0.023490905330320055	-0.10815595783678145	0.5457463911637006	-0.0178480546022306	-0.11223379247707416	0.5628509731885329	-0.0021557671053524796	-0.10321351721125743	0.5349267375140925	0.0022313140920102725	-0.07430484352037248	0.6026604592072993	0.007851091975954794	-0.05815066401574054	0.5868963833452168	0.0013997269682843871	-0.0598458931307303	0.5669368475955039	-0.0049363139259106514	-0.06135703092822675	0.5341464290539869	-0.01820666464919163	-0.06839760580200338	0.4622830810018609	-0.023011742144276925	-0.051989820119430985
19	0.6666666666666637	0.5479110208596203	-0.024665207577438175	-0.12421214155642413	0.5254600519019677	-0.020226423174077635	-0.12215030114480152	0.4969399813408917	-0.011811302062087692	-0.1129518604148852	0.47108925802247215	-0.0252193588300772	-0.07916052842544008	0.5650033786655606	0.06063658227771118	-0.15781863174581529	0.5527496946984325	0.05092036713339232	-0.14868395099041637	0.5368669383995259	0.04169300452376068	-0.13151992859996509	0.5113005743215044	0.024126562106410065	-0.10234087408087617	0.510182692024192	-0.013137815588954216	-0.1093558949225939	0.5248656157083861	-0.011334100383293966	-0.11980378291687305	0.5462675398068022	0.008432955398185227	-0.11900961629863532	0.5250934505607835	0.019876290481489534	-0.08136846929468688	0.5290856686634996	-0.023586378697224353	-0.10820478428513691	0.5457218129776196	-0.017968281632349092	-0.1122883718903454	0.5628427760517658	-0.0022854020920535234	-0.10328282405924089	0.5349330013476368	0.002156740634064902	-0.07436859437962529	0.602683406468946	0.007714094034799501	-0.05818947641125349	0.5869097020906175	0.001286349668246256	-0.059884867971732314	0.5669483924449427	-0.005042787141764649	-0.0614014969539326	0.5341410980132134	-0.01827244730479216	-0.06844003196063908	0.4622830810018609	-0.023011742144276925	-0.051989820119430985
20	0.6999999999999968	0.5478868358690774	-0.024770596279479862	-0.12424027899107037	0.5254374571507251	-0.020325248142792463	-0.12217526685947283	0.49693769339432003	-0.011864536945919268	-0.11295573152019389	0.47107725581113125	-0.02524798033058573	-0.07916207514543294	0.5649491327904487	0.06051007167945799	-0.15797889507629342	0.5527052180280594	0.05080297447554094	-0.14882144918974544	0.5368451879886347	0.041596193414463745	-0.13162538968060383	0.5113102768169974	0.02403908707840452	-0.10241319321130515	0.5101883604726738	-0.013234766756175964	-0.10944246673226055	0.5248612012819648	-0.011432210050224767	-0.1199047098907346	0.5462719078818312	0.008323837905049647	-0.11907419072579356	0.5251144097562717	0.01980064867411413	-0.08143390634007153	0.5290614868596817	-0.023681102352346772	-0.10823713779374805	0.545700171844695	-0.01807333873881678	-0.11232457577178023	0.5628382923567812	-0.002402886388711112	-0.10333003701449633	0.5349412749868725	0.0020941619391592337	-0.07441198361873991	0.6026964266094301	0.007620641262121253	-0.058173625872740664	0.586915848143525	0.0012130064113156092	-0.05988112664877254	0.5669585271142873	-0.00512641174802364	-0.061407276620756845	0.5341411440177072	-0.018326031300641255	-0.06845517427597725	0.4622830810018609	-0.023011742144276925	-0.051989820119430985
21	0.7333333333333302	0.5478849387191422	-0.024892789477073185	-0.12426845357406652	0.5254368238517583	-0.02044184623886669	-0.1222017549528348	0.496955331417926	-0.011945914231819343	-0.11295817728652036	0.4710794851107668	-0.025283960999931354	-0.07915836831812628	0.5649060228290889	0.06042026695489122	-0.15811103721105307	0.5526734103513349	0.05071388555009704	-0.14893774162038537	0.536829928149174	0.04152176570816091	-0.13171860001804953	0.5113282052099019	0.0239272376140639	-0.10249992786692957	0.5101976978752467	-0.013276266810183901	-0.1094865442213318	0.5248538671343482	-0.011524058338876153	-0.11998066010222641	0.5462797969202668	0.008214434530451564	-0.11912568521582007	0.525136470349131	0.019730077398774193	-0.08148929814379147	0.529050339362681	-0.023768686934121708	-0.10828478458409446	0.5456920035515007	-0.018172280122430662	-0.11237565781906711	0.5628290117908477	-0.002496224162832239	-0.10338876752508336	0.5349519447161948	0.0020245671312864033	-0.07445518130784556	0.6027103132539289	0.007522754435048462	-0.058171316255257954	0.5869275546355026	0.0011251460336177965	-0.05989617483915277	0.566965436513096	-0.005202882493391625	-0.06140677539139838	0.5341403966165743	-0.018374143519282904	-0.06847204890199898	0.4622830810018609	-0.023011742144276925	-0.051989820119430985
22	0.7666666666666633	0.547871562353016	-0.024986372161110326	-0.12429650255249686	0.5254244093198301	-0.020537102037820776	-0.12221580169107082	0.49695874508857985	-0.011996475199804402	-0.11296465835159797	0.47108313834557025	-0.02530999026318037	-0.07915499564493411	0.5648274022767973	0.06041951142257962	-0.15820298296097884	0.5526187536206677	0.05068941684434869	-0.14902288723762896	0.5368019599267838	0.041480252111393945	-0.13178832443010702	0.5113297241614619	0.02386438290424364	-0.10255679263321976	0.5102205399813391	-0.013267115102217675	-0.10953955994872577	0.5248938557804733	-0.011653874672342912	-0.12003199811982279	0.5462865751607071	0.008120362662964453	-0.1191713905870253	0.5251357597541694	0.019686013898025156	-0.08155455073905948	0.529054828088126	-0.023883491747050067	-0.1083221270642305	0.5456858339598065	-0.018259661594731802	-0.11241873274625636	0.5628182308801307	-0.0025718004020178764	-0.1034436580411296	0.5349592640250163	0.001967069509913988	-0.07449547226571018	0.6027052382792021	0.0074859669537779006	-0.05810133845347365	0.5869269214181561	0.0010868758461737293	-0.059860983312248095	0.5669628474638593	-0.005236598154656047	-0.06136479404109707	0.5341419968320376	-0.01839614006344581	-0.06847124685206096	0.462283081001861	-0.023011742144276925	-0.051989820119430985
23	0.7999999999999965	0.547963424902502	-0.025091789829174482	-0.12416118541062826	0.5255084095537992	-0.020653870809622665	-0.122141987434843	0.49704336163793184	-0.012071321866218399	-0.11292781895464615	0.4711117679089649	-0.0253394011488679	-0.07914319939448045	0.5647436926070009	0.06040849188364039	-0.15829547226191704	0.5525665727072833	0.0506456366061796	-0.1491082851091886	0.5367794031812598	0.041416066221878434	-0.13185748391394475	0.5113439114515838	0.02382641566965238	-0.10257820714828403	0.5102573795953654	-0.013349496969500052	-0.10950376931162531	0.524948902432934	-0.011785325993481366	-0.11997814403620827	0.5463003419571859	0.008034881538980465	-0.11915052479261817	0.5251372770566202	0.019677094056920197	-0.0815642042397684	0.5291492555477106	-0.024011341696951738	-0.10825561785801574	0.5457712054309587	-0.018362727412200908	-0.11235487861343235	0.5628719856764582	-0.002645158489182564	-0.10337148720788258	0.5349770705777377	0.0019421517608655403	-0.07446558590200758	0.6026278155421869	0.007613958646736307	-0.057613603012743875	0.5868749877252846	0.0011833440115149862	-0.059483258377859505	0.5669341090256637	-0.005186259876179156	-0.061096181810905925	0.5341617600150834	-0.01837093732459083	-0.06837772504775319	0.462283081001861	-0.023011742144276925	-0.051989820119430985
24	0.8333333333333297	0.5481473072870743	-0.02515287863997473	-0.12377090082438202	0.5256633705467348	-0.02077571221826824	-0.12195073523490796	0.4971573010339855	-0.012175671740679794	-0.11288082317810533	0.47114491132624814	-0.02537065011763151	-0.07912970279189313	0.5645927803440064	0.06052619181480334	-0.15835817145121572	0.5524506972986274	0.05070744711842712	-0.14918418257469612	0.536684990149175	0.04142867734280575	-0.13194014759071615	0.5112952495051812	0.02381591130671412	-0.10263506890819718	0.5102901314528963	-0.013354567837136955	-0.1093777200188587	0.5249770735707161	-0.011786320886332469	-0.11985790764738452	0.546296737910564	0.008070584045553386	-0.1190931926924757	0.5250921990029048	0.01975730528332753	-0.08154407822323517	0.5292890533769505	-0.02400941607146634	-0.10800102707461345	0.5458969648081878	-0.018342483019118894	-0.1121317833821675	0.5629723653539611	-0.002587770483142404	-0.10316519495009663	0.5349714727699925	0.0020448763472900033	-0.07436919814766685	0.6025310707432054	0.007847802688757288	-0.0569922550942944	0.5868125830315807	0.0013743478797880737	-0.05899812819490147	0.5669002096172413	-0.005045046515670615	-0.060759031259655316	0.5341877838262483	-0.018270179854651847	-0.06823408965641364	0.4622830810018609	-0.023011742144276925	-0.051989820119430985
